<svg width="64" height="64" viewBox="0 0 64 64" fill="none" xmlns="http://www.w3.org/2000/svg">
<path d="M8.93237 44.4832C9.52102 49.9854 13.9462 54.4106 19.4456 55.0236C27.8927 55.965 36.108 55.965 44.5549 55.0236C50.0545 54.4106 54.4797 49.9854 55.0682 44.4832C55.5028 40.4215 55.8698 36.2516 55.8698 32.0003C55.8698 27.749 55.5028 23.5791 55.0682 19.5174C54.4797 14.0154 50.0545 9.59015 44.5549 8.97716C36.108 8.03561 27.8927 8.03561 19.4456 8.97716C13.9462 9.59015 9.52102 14.0154 8.93237 19.5174C8.49781 23.5791 8.13086 27.749 8.13086 32.0003C8.13086 36.2516 8.49782 40.4215 8.93237 44.4832Z" fill="#EAECEE" stroke="#ADB3BA" stroke-width="3.81912"/>
<path d="M31.999 22.4521V41.5477" stroke="#ADB3BA" stroke-width="3.81912" stroke-linecap="round"/>
<path d="M41.5473 32.001H22.4517" stroke="#ADB3BA" stroke-width="3.81912" stroke-linecap="round"/>
</svg>
