<svg width="22" height="22" viewBox="0 0 22 22" fill="none" xmlns="http://www.w3.org/2000/svg">
<path d="M18.3879 9.13858L11.722 15.8045C11.6601 15.8665 11.5866 15.9156 11.5056 15.9492C11.4247 15.9827 11.338 16 11.2504 16C11.1628 16 11.076 15.9827 10.9951 15.9492C10.9142 15.9156 10.8407 15.8665 10.7788 15.8045L4.11283 9.13858C3.98775 9.0135 3.91748 8.84385 3.91748 8.66696C3.91748 8.49007 3.98775 8.32043 4.11283 8.19535C4.23791 8.07027 4.40755 8 4.58444 8C4.76133 8 4.93098 8.07027 5.05606 8.19535L11.2504 14.3905L17.4447 8.19535C17.5066 8.13342 17.5801 8.08429 17.6611 8.05077C17.742 8.01725 17.8287 8 17.9163 8C18.0039 8 18.0906 8.01725 18.1715 8.05077C18.2524 8.08429 18.326 8.13342 18.3879 8.19535C18.4498 8.25728 18.499 8.33081 18.5325 8.41173C18.566 8.49265 18.5833 8.57938 18.5833 8.66696C18.5833 8.75455 18.566 8.84128 18.5325 8.9222C18.499 9.00312 18.4498 9.07664 18.3879 9.13858Z" fill="#868C94"/>
</svg>
