<svg width="22" height="22" viewBox="0 0 22 22" fill="none" xmlns="http://www.w3.org/2000/svg">
<path d="M19.25 3.4375V6.53125C19.25 6.71359 19.1776 6.88845 19.0486 7.01739C18.9197 7.14632 18.7448 7.21875 18.5625 7.21875C18.3802 7.21875 18.2053 7.14632 18.0764 7.01739C17.9474 6.88845 17.875 6.71359 17.875 6.53125V4.125H15.4688C15.2864 4.125 15.1115 4.05257 14.9826 3.92364C14.8537 3.7947 14.7812 3.61984 14.7812 3.4375C14.7812 3.25516 14.8537 3.0803 14.9826 2.95136C15.1115 2.82243 15.2864 2.75 15.4688 2.75H18.5625C18.7448 2.75 18.9197 2.82243 19.0486 2.95136C19.1776 3.0803 19.25 3.25516 19.25 3.4375ZM18.5625 14.7812C18.3802 14.7812 18.2053 14.8537 18.0764 14.9826C17.9474 15.1115 17.875 15.2864 17.875 15.4688V17.875H15.4688C15.2864 17.875 15.1115 17.9474 14.9826 18.0764C14.8537 18.2053 14.7812 18.3802 14.7812 18.5625C14.7812 18.7448 14.8537 18.9197 14.9826 19.0486C15.1115 19.1776 15.2864 19.25 15.4688 19.25H18.5625C18.7448 19.25 18.9197 19.1776 19.0486 19.0486C19.1776 18.9197 19.25 18.7448 19.25 18.5625V15.4688C19.25 15.2864 19.1776 15.1115 19.0486 14.9826C18.9197 14.8537 18.7448 14.7812 18.5625 14.7812ZM6.53125 17.875H4.125V15.4688C4.125 15.2864 4.05257 15.1115 3.92364 14.9826C3.7947 14.8537 3.61984 14.7812 3.4375 14.7812C3.25516 14.7812 3.0803 14.8537 2.95136 14.9826C2.82243 15.1115 2.75 15.2864 2.75 15.4688V18.5625C2.75 18.7448 2.82243 18.9197 2.95136 19.0486C3.0803 19.1776 3.25516 19.25 3.4375 19.25H6.53125C6.71359 19.25 6.88845 19.1776 7.01739 19.0486C7.14632 18.9197 7.21875 18.7448 7.21875 18.5625C7.21875 18.3802 7.14632 18.2053 7.01739 18.0764C6.88845 17.9474 6.71359 17.875 6.53125 17.875ZM3.4375 7.21875C3.61984 7.21875 3.7947 7.14632 3.92364 7.01739C4.05257 6.88845 4.125 6.71359 4.125 6.53125V4.125H6.53125C6.71359 4.125 6.88845 4.05257 7.01739 3.92364C7.14632 3.7947 7.21875 3.61984 7.21875 3.4375C7.21875 3.25516 7.14632 3.0803 7.01739 2.95136C6.88845 2.82243 6.71359 2.75 6.53125 2.75H3.4375C3.25516 2.75 3.0803 2.82243 2.95136 2.95136C2.82243 3.0803 2.75 3.25516 2.75 3.4375V6.53125C2.75 6.71359 2.82243 6.88845 2.95136 7.01739C3.0803 7.14632 3.25516 7.21875 3.4375 7.21875ZM15.125 15.125C15.0182 15.1252 14.9128 15.1006 14.8172 15.053C14.7216 15.0054 14.6384 14.9362 14.5741 14.8509C14.1579 14.2959 13.6181 13.8454 12.9976 13.5351C12.3771 13.2249 11.6929 13.0634 10.9991 13.0634C10.3054 13.0634 9.62117 13.2249 9.00066 13.5351C8.38014 13.8454 7.84039 14.2959 7.42414 14.8509C7.31451 14.9967 7.15143 15.0931 6.97076 15.1187C6.7901 15.1443 6.60665 15.0971 6.46078 14.9875C6.31491 14.8779 6.21857 14.7148 6.19294 14.5341C6.16732 14.3535 6.21451 14.17 6.32414 14.0241C6.93343 13.2083 7.74548 12.566 8.67969 12.161C8.16777 11.6936 7.80911 11.0824 7.65079 10.4075C7.49246 9.73268 7.54187 9.02572 7.79251 8.37944C8.04316 7.73316 8.48335 7.17775 9.0553 6.78612C9.62725 6.39448 10.3042 6.18491 10.9974 6.18491C11.6906 6.18491 12.3676 6.39448 12.9395 6.78612C13.5115 7.17775 13.9517 7.73316 14.2023 8.37944C14.453 9.02572 14.5024 9.73268 14.3441 10.4075C14.1857 11.0824 13.8271 11.6936 13.3152 12.161C14.25 12.5658 15.0627 13.2081 15.6724 14.0241C15.7491 14.1261 15.796 14.2474 15.8077 14.3745C15.8194 14.5015 15.7955 14.6294 15.7387 14.7436C15.6818 14.8579 15.5943 14.9541 15.486 15.0214C15.3776 15.0888 15.2526 15.1246 15.125 15.125ZM11 11.6875C11.4079 11.6875 11.8067 11.5665 12.1459 11.3399C12.485 11.1133 12.7494 10.7912 12.9055 10.4143C13.0616 10.0374 13.1025 9.62271 13.0229 9.22263C12.9433 8.82254 12.7469 8.45504 12.4584 8.16659C12.17 7.87815 11.8025 7.68171 11.4024 7.60213C11.0023 7.52255 10.5876 7.56339 10.2107 7.7195C9.83384 7.8756 9.51172 8.13996 9.28509 8.47914C9.05846 8.81831 8.9375 9.21708 8.9375 9.625C8.9375 10.172 9.1548 10.6966 9.54159 11.0834C9.92839 11.4702 10.453 11.6875 11 11.6875Z" fill="#868C94"/>
</svg>
