<svg width="22" height="23" viewBox="0 0 22 23" fill="none" xmlns="http://www.w3.org/2000/svg">
<path d="M17.875 3.25H15.8125V2.5625C15.8125 2.38016 15.7401 2.2053 15.6111 2.07636C15.4822 1.94743 15.3073 1.875 15.125 1.875C14.9427 1.875 14.7678 1.94743 14.6389 2.07636C14.5099 2.2053 14.4375 2.38016 14.4375 2.5625V3.25H7.5625V2.5625C7.5625 2.38016 7.49007 2.2053 7.36114 2.07636C7.2322 1.94743 7.05734 1.875 6.875 1.875C6.69266 1.875 6.5178 1.94743 6.38886 2.07636C6.25993 2.2053 6.1875 2.38016 6.1875 2.5625V3.25H4.125C3.76033 3.25 3.41059 3.39487 3.15273 3.65273C2.89487 3.91059 2.75 4.26033 2.75 4.625V18.375C2.75 18.7397 2.89487 19.0894 3.15273 19.3473C3.41059 19.6051 3.76033 19.75 4.125 19.75H17.875C18.2397 19.75 18.5894 19.6051 18.8473 19.3473C19.1051 19.0894 19.25 18.7397 19.25 18.375V4.625C19.25 4.26033 19.1051 3.91059 18.8473 3.65273C18.5894 3.39487 18.2397 3.25 17.875 3.25ZM6.1875 4.625V5.3125C6.1875 5.49484 6.25993 5.6697 6.38886 5.79864C6.5178 5.92757 6.69266 6 6.875 6C7.05734 6 7.2322 5.92757 7.36114 5.79864C7.49007 5.6697 7.5625 5.49484 7.5625 5.3125V4.625H14.4375V5.3125C14.4375 5.49484 14.5099 5.6697 14.6389 5.79864C14.7678 5.92757 14.9427 6 15.125 6C15.3073 6 15.4822 5.92757 15.6111 5.79864C15.7401 5.6697 15.8125 5.49484 15.8125 5.3125V4.625H17.875V7.375H4.125V4.625H6.1875ZM17.875 18.375H4.125V8.75H17.875V18.375Z" fill="#868C94"/>
</svg>
