<svg width="22" height="22" viewBox="0 0 22 22" fill="none" xmlns="http://www.w3.org/2000/svg">
<path d="M18.5625 8.2501C18.5633 6.97564 18.2419 5.72167 17.6283 4.60465C17.0148 3.48762 16.1288 2.54378 15.0528 1.86079C13.9769 1.17779 12.7457 0.777801 11.4738 0.697961C10.2018 0.618122 8.93032 0.861026 7.77737 1.40411C6.62443 1.9472 5.62743 2.77285 4.87898 3.80438C4.13053 4.83591 3.65492 6.03986 3.4963 7.3044C3.33769 8.56894 3.50122 9.85306 3.97172 11.0375C4.44221 12.2219 5.2044 13.2682 6.1875 14.0792V20.6251C6.18742 20.7423 6.21732 20.8577 6.27437 20.9601C6.33142 21.0625 6.41372 21.1487 6.51345 21.2103C6.61317 21.272 6.72701 21.3071 6.84414 21.3124C6.96127 21.3177 7.0778 21.2929 7.18266 21.2404L11 19.336L14.8182 21.2447C14.9139 21.2905 15.0189 21.3137 15.125 21.3126C15.3073 21.3126 15.4822 21.2402 15.6111 21.1112C15.7401 20.9823 15.8125 20.8074 15.8125 20.6251V14.0792C16.6727 13.3708 17.3654 12.4807 17.8408 11.4729C18.3163 10.465 18.5627 9.36445 18.5625 8.2501ZM4.8125 8.2501C4.8125 7.02632 5.17539 5.83003 5.85528 4.81251C6.53517 3.79498 7.50153 3.00191 8.63215 2.53359C9.76277 2.06527 11.0069 1.94274 12.2071 2.18149C13.4074 2.42023 14.5099 3.00954 15.3752 3.87487C16.2406 4.74021 16.8299 5.84272 17.0686 7.04297C17.3074 8.24323 17.1848 9.48733 16.7165 10.6179C16.2482 11.7486 15.4551 12.7149 14.4376 13.3948C13.4201 14.0747 12.2238 14.4376 11 14.4376C9.35953 14.4358 7.78678 13.7833 6.62679 12.6233C5.4668 11.4633 4.81432 9.89056 4.8125 8.2501ZM14.4375 19.5131L11.3068 17.9481C11.2113 17.9003 11.1059 17.8755 10.9991 17.8755C10.8923 17.8755 10.787 17.9003 10.6915 17.9481L7.5625 19.5131V14.985C8.62672 15.529 9.80483 15.8126 11 15.8126C12.1952 15.8126 13.3733 15.529 14.4375 14.985V19.5131ZM11 13.0626C11.9518 13.0626 12.8823 12.7803 13.6737 12.2515C14.4651 11.7227 15.0819 10.9711 15.4462 10.0918C15.8104 9.21239 15.9057 8.24476 15.72 7.31122C15.5343 6.37769 15.076 5.52018 14.403 4.84714C13.7299 4.1741 12.8724 3.71576 11.9389 3.53007C11.0053 3.34438 10.0377 3.43968 9.15834 3.80393C8.27897 4.16817 7.52736 4.785 6.99855 5.57641C6.46975 6.36783 6.1875 7.29827 6.1875 8.2501C6.18887 9.52603 6.69633 10.7493 7.59856 11.6515C8.50078 12.5538 9.72407 13.0612 11 13.0626ZM11 4.8126C11.6799 4.8126 12.3445 5.0142 12.9098 5.39192C13.4751 5.76964 13.9157 6.3065 14.1758 6.93462C14.436 7.56274 14.5041 8.25391 14.3715 8.92072C14.2388 9.58753 13.9114 10.2 13.4307 10.6808C12.9499 11.1615 12.3374 11.4889 11.6706 11.6215C11.0038 11.7542 10.3126 11.6861 9.68453 11.4259C9.05641 11.1658 8.51954 10.7252 8.14182 10.1599C7.76411 9.59457 7.5625 8.92997 7.5625 8.2501C7.5625 7.33841 7.92467 6.46407 8.56932 5.81942C9.21398 5.17476 10.0883 4.8126 11 4.8126Z" fill="#868C94"/>
</svg>
