<svg width="65" height="64" viewBox="0 0 65 64" fill="none" xmlns="http://www.w3.org/2000/svg">
<path d="M47.3578 30.8578C54.932 30.8578 61.0721 24.7177 61.0721 17.1435C61.0721 9.56929 54.932 3.4292 47.3578 3.4292C39.7836 3.4292 33.6436 9.56929 33.6436 17.1435C33.6436 24.7177 39.7836 30.8578 47.3578 30.8578Z" fill="white" stroke="#ADB3BA" stroke-width="4.57143"/>
<path d="M51.8044 32.0496C51.6065 31.9916 51.4296 31.8795 51.2947 31.7263C51.1599 31.5731 51.0725 31.3853 51.0428 31.1849C50.6885 27.3803 49.0149 23.8096 46.3004 21.0684C43.5861 18.3272 39.9951 16.5811 36.1266 16.1214C32.258 15.6617 28.3456 16.5161 25.0418 18.5421C21.738 20.5681 19.2425 23.6433 17.9715 27.2549C17.8874 27.4233 17.7559 27.5646 17.5925 27.6621C17.4291 27.7596 17.2407 27.8092 17.0495 27.8051C15.207 27.9264 13.4069 28.4023 11.7521 29.2056C10.0972 30.0089 8.61988 31.1239 7.40457 32.487C4.95004 35.2397 3.71146 38.8357 3.9613 42.4838C4.21115 46.1317 5.92896 49.5333 8.73677 51.9397C19.2921 60.9856 46.4321 61.6796 57.0844 52.2949C59.2737 50.3666 60.6652 47.7184 60.9962 44.8513C61.3272 41.9845 60.5743 39.0981 58.8805 36.7388C57.1864 34.3796 54.6689 32.7112 51.8044 32.0496Z" fill="#EAECEE" stroke="#ADB3BA" stroke-width="4.57143"/>
<path d="M16.3926 27.8169C21.829 27.8169 26.6909 31.4002 28.2246 34.6739" stroke="#ADB3BA" stroke-width="4.57143" stroke-linecap="round"/>
</svg>
