<svg width="32" height="32" viewBox="0 0 32 32" fill="none" xmlns="http://www.w3.org/2000/svg">
<path d="M14.0906 18.0332L3.99927 28.1246L14.0906 18.0332Z" fill="#EAECEE"/>
<path d="M14.0906 18.0332L3.99927 28.1246" stroke="#868C94" stroke-width="1.48495" stroke-linecap="round" stroke-linejoin="round"/>
<path d="M23.1369 5.90034C25.264 4.98261 27.4142 7.0356 26.4859 9.15798C25.9636 10.3518 25.3289 11.5255 24.457 12.9399C25.671 14.1296 26.6168 15.119 27.4934 16.1414C29.0086 17.9082 27.6738 20.5659 25.3634 20.2841C24.3449 20.1599 23.2981 19.9686 22.0811 19.6919C21.6362 19.5908 21.1773 19.8032 20.9689 20.2091C20.2016 21.7034 19.5164 22.9054 18.7597 24.0704C17.5098 25.9944 14.6114 25.5295 14.179 23.2764C13.9068 21.8579 13.775 20.3955 13.7269 18.5249C11.9061 18.4495 10.4704 18.3032 9.07073 18.035C6.80083 17.6 6.28722 14.6776 8.22687 13.4209C9.35424 12.6904 10.5416 12.0211 12.0266 11.2799C12.4402 11.0735 12.6584 10.6088 12.5547 10.1584C12.2639 8.89567 12.0653 7.81379 11.9402 6.7506C11.6719 4.46792 14.2835 3.13895 16.0295 4.63365C17.0756 5.52917 18.0858 6.51117 19.3118 7.79476C20.7549 7.00741 21.9427 6.41559 23.1369 5.90034Z" fill="#EAECEE" stroke="#868C94" stroke-width="1.48495" stroke-linejoin="round"/>
</svg>
