<svg width="32" height="32" viewBox="0 0 32 32" fill="none" xmlns="http://www.w3.org/2000/svg">
<path d="M3.86987 18.064L14.5302 5.69801C15.3045 4.79988 16.696 4.79988 17.4703 5.69801L28.1306 18.064" stroke="#868C94" stroke-width="1.46997" stroke-linecap="round" stroke-linejoin="round"/>
<path d="M7.60188 13.7449L14.5271 5.67676C15.3016 4.77441 16.6981 4.77441 17.4726 5.67676L24.3978 13.7449L24.7933 16.5668C25.1499 19.1097 25.1324 21.6911 24.7415 24.2289C24.5437 25.5132 23.4386 26.4611 22.1394 26.4611H9.86034C8.56098 26.4611 7.45591 25.5132 7.25816 24.2289C6.86734 21.6911 6.84988 19.1097 7.20633 16.5668L7.60188 13.7449Z" fill="#EAECEE" stroke="#868C94" stroke-width="1.46997" stroke-linejoin="round"/>
<path d="M15.9998 17.3237C17.7873 17.3237 19.2364 18.7728 19.2364 20.5603V26.4604H12.7632V20.5603C12.7632 18.7728 14.2123 17.3237 15.9998 17.3237Z" fill="white" stroke="#868C94" stroke-width="1.46997" stroke-linecap="round" stroke-linejoin="round"/>
</svg>
