<svg width="22" height="22" viewBox="0 0 22 22" fill="none" xmlns="http://www.w3.org/2000/svg">
<path d="M18.9093 17.2499C17.7389 15.2772 15.9352 13.8627 13.8303 13.1921C14.8715 12.5879 15.6804 11.6671 16.1329 10.5712C16.5854 9.47536 16.6563 8.26499 16.3349 7.126C16.0135 5.98701 15.3174 4.98238 14.3537 4.26637C13.3899 3.55037 12.2117 3.1626 11 3.1626C9.7883 3.1626 8.6101 3.55037 7.64633 4.26637C6.68257 4.98238 5.98653 5.98701 5.6651 7.126C5.34368 8.26499 5.41464 9.47536 5.8671 10.5712C6.31955 11.6671 7.12848 12.5879 8.16965 13.1921C6.06476 13.8619 4.26112 15.2764 3.09071 17.2499C3.04779 17.3181 3.01932 17.394 3.00698 17.4732C2.99464 17.5523 2.99869 17.633 3.01887 17.7106C3.03906 17.7882 3.07498 17.861 3.12452 17.9249C3.17405 17.9887 3.2362 18.0422 3.30729 18.0822C3.37838 18.1223 3.45698 18.148 3.53844 18.158C3.6199 18.1679 3.70258 18.1618 3.7816 18.1401C3.86062 18.1184 3.93437 18.0815 3.99852 18.0315C4.06266 17.9816 4.11589 17.9196 4.15507 17.8492C5.6029 15.4098 8.16197 13.9533 11 13.9533C13.838 13.9533 16.3971 15.4098 17.8449 17.8492C17.8841 17.9196 17.9373 17.9816 18.0015 18.0315C18.0656 18.0815 18.1394 18.1184 18.2184 18.1401C18.2974 18.1618 18.3801 18.1679 18.4616 18.158C18.543 18.148 18.6216 18.1223 18.6927 18.0822C18.7638 18.0422 18.8259 17.9887 18.8755 17.9249C18.925 17.861 18.9609 17.7882 18.9811 17.7106C19.0013 17.633 19.0054 17.5523 18.993 17.4732C18.9807 17.394 18.9522 17.3181 18.9093 17.2499ZM6.69646 8.55898C6.69646 7.72917 6.94886 6.91799 7.42174 6.22803C7.89462 5.53807 8.56674 5.00031 9.35311 4.68275C10.1395 4.3652 11.0048 4.28211 11.8396 4.444C12.6744 4.60589 13.4412 5.00548 14.0431 5.59224C14.6449 6.17901 15.0548 6.92659 15.2208 7.74046C15.3869 8.55433 15.3017 9.39792 14.976 10.1646C14.6502 10.9312 14.0986 11.5865 13.3909 12.0475C12.6832 12.5085 11.8512 12.7546 11 12.7546C9.85901 12.7534 8.76509 12.311 7.95829 11.5244C7.15148 10.7378 6.69768 9.67136 6.69646 8.55898Z" fill="#868C94"/>
</svg>
