<svg width="32" height="32" viewBox="0 0 32 32" fill="none" xmlns="http://www.w3.org/2000/svg">
<path d="M16.0002 27.7635C22.4971 27.7635 27.7638 22.4968 27.7638 15.9999C27.7638 9.50307 22.4971 4.23633 16.0002 4.23633C9.50332 4.23633 4.23657 9.50307 4.23657 15.9999C4.23657 22.4968 9.50332 27.7635 16.0002 27.7635Z" fill="#FFE7E4" stroke="#FC5F46" stroke-width="1.42553" stroke-linecap="round" stroke-linejoin="round"/>
<path d="M16.0002 17.0917C18.2733 17.0917 20.1161 15.2489 20.1161 12.9758C20.1161 10.7026 18.2733 8.85986 16.0002 8.85986C13.727 8.85986 11.8843 10.7026 11.8843 12.9758C11.8843 15.2489 13.727 17.0917 16.0002 17.0917Z" fill="white" stroke="#FC5F46" stroke-width="1.42553" stroke-linecap="round" stroke-linejoin="round"/>
<path d="M22.9723 25.476C21.0212 26.914 18.6099 27.7638 16.0002 27.7638C13.3905 27.7638 10.9792 26.914 9.02808 25.476C9.41663 24.0126 10.2571 22.7049 11.4349 21.7421C12.7233 20.689 14.3362 20.1138 16.0002 20.1138C17.6642 20.1138 19.2771 20.689 20.5654 21.7421C21.7433 22.7049 22.5837 24.0126 22.9723 25.476Z" fill="white" stroke="#FC5F46" stroke-width="1.42553" stroke-linecap="round" stroke-linejoin="round"/>
</svg>
