<svg width="33" height="33" viewBox="0 0 33 33" fill="none" xmlns="http://www.w3.org/2000/svg">
<path d="M16.5002 28.2635C22.9971 28.2635 28.2638 22.9968 28.2638 16.4999C28.2638 10.0031 22.9971 4.73633 16.5002 4.73633C10.0033 4.73633 4.73657 10.0031 4.73657 16.4999C4.73657 22.9968 10.0033 28.2635 16.5002 28.2635Z" fill="#EAECEE" stroke="#868C94" stroke-width="1.42553" stroke-linecap="round" stroke-linejoin="round"/>
<path d="M16.5002 17.5917C18.7733 17.5917 20.6161 15.7489 20.6161 13.4758C20.6161 11.2026 18.7733 9.35986 16.5002 9.35986C14.227 9.35986 12.3843 11.2026 12.3843 13.4758C12.3843 15.7489 14.227 17.5917 16.5002 17.5917Z" fill="white" stroke="#868C94" stroke-width="1.42553" stroke-linecap="round" stroke-linejoin="round"/>
<path d="M23.4723 25.976C21.5212 27.414 19.1099 28.2638 16.5002 28.2638C13.8905 28.2638 11.4792 27.414 9.52808 25.976C9.91663 24.5126 10.7571 23.2049 11.9349 22.2421C13.2233 21.189 14.8362 20.6138 16.5002 20.6138C18.1642 20.6138 19.7771 21.189 21.0654 22.2421C22.2433 23.2049 23.0837 24.5126 23.4723 25.976Z" fill="white" stroke="#868C94" stroke-width="1.42553" stroke-linecap="round" stroke-linejoin="round"/>
</svg>
