<svg width="32" height="32" viewBox="0 0 32 32" fill="none" xmlns="http://www.w3.org/2000/svg">
<path d="M15.8306 26.6609C14.5853 26.6609 14.5748 25.755 13.502 24.9819C11.6357 23.6376 8.76705 22.0553 6.48299 21.7456C6.07357 21.7002 5.69542 21.5049 5.42156 21.1972C5.1477 20.8895 4.99753 20.4912 5.00003 20.0793V6.66604C5.00002 6.42537 5.05214 6.18755 5.15281 5.96893C5.25348 5.75033 5.40032 5.55613 5.58321 5.3997C5.7629 5.2461 5.97318 5.1325 6.20014 5.06642C6.42709 5.00035 6.6655 4.98332 6.89954 5.01646C10.3392 5.58732 13.4857 7.3015 15.8306 9.88189V26.6609Z" fill="#FFE7E4" stroke="#FC5F46" stroke-width="1.73288" stroke-linecap="round" stroke-linejoin="round"/>
<path d="M15.8306 26.6609C17.0758 26.6609 17.0864 25.755 18.1592 24.9819C20.0255 23.6376 22.8941 22.0553 25.1782 21.7456C25.5877 21.7002 25.9658 21.5049 26.2396 21.1972C26.5134 20.8895 26.6636 20.4912 26.6612 20.0793V6.66604C26.6612 6.42537 26.6091 6.18755 26.5084 5.96893C26.4077 5.75033 26.2609 5.55613 26.0779 5.3997C25.8982 5.2461 25.688 5.1325 25.461 5.06642C25.234 5.00035 24.9958 4.98332 24.7616 5.01646C21.3221 5.58732 18.1754 7.3015 15.8306 9.88189V26.6609Z" fill="white" stroke="#FC5F46" stroke-width="1.73288" stroke-linecap="round" stroke-linejoin="round"/>
</svg>
