<svg width="65" height="65" viewBox="0 0 65 65" fill="none" xmlns="http://www.w3.org/2000/svg">
<path d="M28.2441 36.0254L7.24414 57.0254" stroke="#B1D800" stroke-width="4.57143" stroke-linecap="round" stroke-linejoin="round"/>
<path d="M46.8188 10.9556C51.2526 9.05756 55.7346 13.3034 53.7995 17.6928C52.7108 20.1618 51.3879 22.5892 49.5705 25.5145C52.101 27.9748 54.0725 30.0212 55.8997 32.1355C59.058 35.7896 56.2757 41.2861 51.4598 40.7032C49.3367 40.4463 47.1548 40.0508 44.6181 39.4785C43.6907 39.2693 42.7342 39.7087 42.2998 40.5482C40.7004 43.6385 39.2722 46.1245 37.6948 48.5339C35.0895 52.5129 29.0479 51.5515 28.1467 46.8917C27.5793 43.9581 27.3047 40.9337 27.2042 37.0649C23.4089 36.9091 20.4163 36.6064 17.4989 36.0518C12.7674 35.1521 11.6968 29.1083 15.7399 26.5091C18.0898 24.9984 20.5648 23.6142 23.6602 22.0813C24.5223 21.6544 24.9771 20.6934 24.7609 19.7618C24.1549 17.1503 23.7407 14.9129 23.4802 12.714C22.9207 7.99312 28.3646 5.24461 32.004 8.33588C34.1844 10.1879 36.29 12.2189 38.8456 14.8735C41.8536 13.2451 44.3296 12.0212 46.8188 10.9556Z" fill="#F0F9CB" stroke="#B1D800" stroke-width="4.57143" stroke-linejoin="round"/>
</svg>
