<svg width="22" height="22" viewBox="0 0 22 22" fill="none" xmlns="http://www.w3.org/2000/svg">
<path d="M2.0625 8.93756H4.125V14.4376H2.75C2.56766 14.4376 2.3928 14.51 2.26386 14.6389C2.13493 14.7679 2.0625 14.9427 2.0625 15.1251C2.0625 15.3074 2.13493 15.4823 2.26386 15.6112C2.3928 15.7401 2.56766 15.8126 2.75 15.8126H19.25C19.4323 15.8126 19.6072 15.7401 19.7361 15.6112C19.8651 15.4823 19.9375 15.3074 19.9375 15.1251C19.9375 14.9427 19.8651 14.7679 19.7361 14.6389C19.6072 14.51 19.4323 14.4376 19.25 14.4376H17.875V8.93756H19.9375C20.0871 8.93741 20.2325 8.88848 20.3518 8.79818C20.4711 8.70789 20.5576 8.58116 20.5983 8.43722C20.6391 8.29328 20.6317 8.13999 20.5775 8.0006C20.5232 7.86121 20.4249 7.74332 20.2976 7.66483L11.3601 2.16483C11.2518 2.09824 11.1271 2.06299 11 2.06299C10.8729 2.06299 10.7482 2.09824 10.6399 2.16483L1.70242 7.66483C1.57509 7.74332 1.47683 7.86121 1.42255 8.0006C1.36827 8.13999 1.36094 8.29328 1.40166 8.43722C1.44238 8.58116 1.52894 8.70789 1.6482 8.79818C1.76746 8.88848 1.91291 8.93741 2.0625 8.93756ZM5.5 8.93756H8.25V14.4376H5.5V8.93756ZM12.375 8.93756V14.4376H9.625V8.93756H12.375ZM16.5 14.4376H13.75V8.93756H16.5V14.4376ZM11 3.55701L17.5089 7.56256H4.49109L11 3.55701ZM21.3125 17.8751C21.3125 18.0574 21.2401 18.2323 21.1111 18.3612C20.9822 18.4901 20.8073 18.5626 20.625 18.5626H1.375C1.19266 18.5626 1.0178 18.4901 0.888864 18.3612C0.759933 18.2323 0.6875 18.0574 0.6875 17.8751C0.6875 17.6927 0.759933 17.5179 0.888864 17.3889C1.0178 17.26 1.19266 17.1876 1.375 17.1876H20.625C20.8073 17.1876 20.9822 17.26 21.1111 17.3889C21.2401 17.5179 21.3125 17.6927 21.3125 17.8751Z" fill="#868C94"/>
</svg>
